<svg xmlns="http://www.w3.org/2000/svg" viewBox="0 0 90 90"><defs><style>.cls-1{fill:#a02932;}.cls-2{fill:#231f20;}.cls-3{fill:none;stroke:#ecc65f;stroke-miterlimit:10;stroke-width:0.5px;}</style></defs><title>favicon</title><g id="Layer_2" data-name="Layer 2"><g id="Layer_1-2" data-name="Layer 1"><path class="cls-1" d="M90,45a45.09,45.09,0,0,1-1.71,12.32,72.31,72.31,0,0,0-86.58,0A45,45,0,1,1,90,45Z"/><path class="cls-2" d="M88.29,57.32a45,45,0,0,1-86.58,0,72.31,72.31,0,0,1,86.58,0Z"/><path class="cls-2" d="M25.5,45.6a5.8,5.8,0,0,0-.89-.79c-.34-.12-.58-.11-.74,0a.78.78,0,0,0-.28.43c0,.15-.05.24-.05.25a1.81,1.81,0,0,1,.61.65c.5-.14,1-.26,1.51-.38A1.35,1.35,0,0,0,25.5,45.6ZM20.44,33.84a7.78,7.78,0,0,0-1.53-.41,9.29,9.29,0,0,0-1.49-.13,9.63,9.63,0,0,0-2.59.34q-1.24.34-2.49.75c-.83.27-1.69.52-2.56.74A11.47,11.47,0,0,1,7,35.46c-.46,0-.73.09-.82.28a.74.74,0,0,0,0,.62,2,2,0,0,0,.4.61c.18.19.32.29.42.29l.59,0a1.86,1.86,0,0,1,.58.17,1.13,1.13,0,0,1,.45.42,1.51,1.51,0,0,1,.18.82V52c1.4-.7,2.85-1.36,4.31-2V37.62a2.09,2.09,0,0,1,.48-1.36,4.86,4.86,0,0,1,1.28-1.06,6.47,6.47,0,0,1,1.42-.61,4.34,4.34,0,0,1,1.14-.21,3.34,3.34,0,0,1,1.58.4c.51.27-.68.17-.32.35a12.52,12.52,0,0,0,2,.73,1.46,1.46,0,0,0,.6.14,1.08,1.08,0,0,0,.56-.14.43.43,0,0,0,.22-.4,1.22,1.22,0,0,0-.48-1A4,4,0,0,0,20.44,33.84Z"/><path class="cls-2" d="M49.43,34.35a1.23,1.23,0,0,0-.53-.29.4.4,0,0,0-.23,0,.75.75,0,0,0-.1.21,1,1,0,0,1-.46.53,2.26,2.26,0,0,1-1.28.29,3.46,3.46,0,0,1-1-.14,4.05,4.05,0,0,1-.76-.33,5.74,5.74,0,0,1-.66-.43,3.8,3.8,0,0,0-.75-.44,5.55,5.55,0,0,0-1-.33,7,7,0,0,0-1.5-.13,7,7,0,0,0-2.13.4,13.07,13.07,0,0,0-2.54,1.19,18.87,18.87,0,0,0-2.61,1.87,14.11,14.11,0,0,0-2.31,2.5,13.14,13.14,0,0,0-1.65,3.07A9.51,9.51,0,0,0,29.24,45c.7-.14,1.41-.27,2.12-.39A8,8,0,0,1,32,41.36,7.08,7.08,0,0,1,33.7,39a6.51,6.51,0,0,1,2.22-1.32,6.89,6.89,0,0,1,2.27-.42,6,6,0,0,1,1.62.22c.54.15,1.08.32,1.62.5s1.08.33,1.62.48a6,6,0,0,0,1.62.23,4.17,4.17,0,0,0,1.65-.36,7.18,7.18,0,0,0,1.55-.89,6.68,6.68,0,0,0,1.2-1.17,3.43,3.43,0,0,0,.64-1.17A.92.92,0,0,0,49.43,34.35Zm-6.92,7.22a3.78,3.78,0,0,1-1.62,1.54,3.11,3.11,0,0,1-1.57.21,6.71,6.71,0,0,1-1.51-.39,4,4,0,0,0-1.41-.28,3.23,3.23,0,0,0-1.9.48,3.81,3.81,0,0,0-1.08,1.15h0a77.91,77.91,0,0,1,9.09-.78h0v-.14a1.5,1.5,0,0,0,.33-.95,1.3,1.3,0,0,0-.16-.63A1.91,1.91,0,0,0,42.51,41.57Z"/><path class="cls-2" d="M61.74,35.24l-.43-.14a16.21,16.21,0,0,0-1.71-.9A16.88,16.88,0,0,0,58,33.58a5.54,5.54,0,0,0-1.7-.28,2.94,2.94,0,0,0-1.69.63,12.17,12.17,0,0,0-1.64,1.39,10.07,10.07,0,0,0-1.22,1.47,3.2,3.2,0,0,0-.48.83,3,3,0,0,0-.39.84,1.9,1.9,0,0,0-.06.81,1,1,0,0,0,.35.62,1.22,1.22,0,0,0,.81.24A1.26,1.26,0,0,0,52.7,40,.74.74,0,0,0,53,39.6a1,1,0,0,0,0-.19c0-.26-.24-.26-.12-.57.06-.13-.16-.23-.25-.32a1.5,1.5,0,0,1-.24-.31,1.2,1.2,0,0,1-.11-.59,2,2,0,0,1,.14-.83.86.86,0,0,1,.4-.42,1.84,1.84,0,0,1,.68-.16c.27,0,.58,0,.94,0l.81,0a4.5,4.5,0,0,1,.9.16,5.25,5.25,0,0,1,1,.42,8.58,8.58,0,0,1,1.23.83h.36l4-2.52ZM83,43.77a20.28,20.28,0,0,0-2.41-3.69,42.35,42.35,0,0,0-3.16-3.47l0,0a4.23,4.23,0,0,0-6.18.24l-1.64,1.88a5.69,5.69,0,0,0-1-2.2A11.46,11.46,0,0,0,67,34.78v0a2.55,2.55,0,0,0-3.48.13c-.36.35-.73.71-1.13,1.06-1,.87-2,1.74-3.09,2.59s-2.13,1.72-3.17,2.58a29.32,29.32,0,0,0-2.89,2.74h0c1.49.15,3,.34,4.44.56a18.39,18.39,0,0,1,1-1.7,21.66,21.66,0,0,1,2.56-3c.76-.76,1.5-1.45,2.23-2.09l1.44,1.07v7.2c1.57.39,3.13.83,4.67,1.32v-6l3.24-3.59A13.45,13.45,0,0,0,74,39.2c.52.64,1.1,1.34,1.74,2.09l2,2.39c.68.83,1.3,1.66,1.86,2.48a19.2,19.2,0,0,1,1.37,2.36,4.93,4.93,0,0,1,.54,2A7.39,7.39,0,0,1,81.33,52c.46.21.92.45,1.37.68a11.32,11.32,0,0,0,.91-2.32A9.58,9.58,0,0,0,84,47.69,8.62,8.62,0,0,0,83,43.77Z"/><path class="cls-1" d="M27.85,57a1.78,1.78,0,0,1,0,.26.83.83,0,0,1-.29.44.74.74,0,0,1-.75,0,12.81,12.81,0,0,1-1.42-.11l-2.17-.24c-.86-.09-1.85-.17-3-.25S17.78,57,16.34,57c-.9,0-1.66,0-2.29.07s-1.18.08-1.64.13-.86.11-1.2.17l-1,.16c-.33,0-.69.1-1.08.14s-.86.06-1.4.06l-.24,0a.29.29,0,0,1-.24-.28q0-.24.48-.75A.55.55,0,0,1,8,56.35a1.49,1.49,0,0,0,.36-.17.82.82,0,0,0,.28-.36,2.48,2.48,0,0,0,.12-.94V52c1.4-.7,2.85-1.36,4.31-2v6a2.83,2.83,0,0,0,1.47-.51l1.73-1.11a20,20,0,0,1,1.92-1.11,4.45,4.45,0,0,1,3.45-.29,11.21,11.21,0,0,1,1.29.5,11,11,0,0,1,1.29.72V50.93c0-.08.05-.36.14-.84a12,12,0,0,0,.18-1.59,5.78,5.78,0,0,0-.17-1.71,2.3,2.3,0,0,0-.25-.62c.5-.14,1-.26,1.51-.38a5.7,5.7,0,0,1,.71,1,4.89,4.89,0,0,1,.52,1.46,3.1,3.1,0,0,1-.12,1.59c-.1,1-.15,1.84-.15,2.51a10.17,10.17,0,0,0,.14,1.75,7.26,7.26,0,0,0,.4,1.44A15.61,15.61,0,0,0,27.85,57Z"/><path class="cls-1" d="M49.35,52a11.05,11.05,0,0,1-1.72,2.47,12.44,12.44,0,0,1-2.25,1.94,11,11,0,0,1-2.52,1.26,6.61,6.61,0,0,1-4.34.16A12.56,12.56,0,0,1,36.19,57a14.48,14.48,0,0,1-2.49-1.58,11.54,11.54,0,0,1-2.25-2.32,11.84,11.84,0,0,1-2.25-7.16,8.7,8.7,0,0,1,0-.89c.7-.14,1.41-.27,2.12-.39v.2a1.85,1.85,0,0,0,.11.58q.11.31.24.63c.09.21.17.4.25.57a1,1,0,0,1,.12.38,5.31,5.31,0,0,0,.66-1.28,9,9,0,0,1,.67-1.4,77.91,77.91,0,0,1,9.09-.78,3.74,3.74,0,0,1-.2,1,3.35,3.35,0,0,1-.69,1.17,3.84,3.84,0,0,1-1.23.9,4.2,4.2,0,0,1-1.83.36,3.7,3.7,0,0,1-1.44-.27,4.07,4.07,0,0,0-1.29-.32,2.22,2.22,0,0,0-1.37.44,6.66,6.66,0,0,0-1.65,2,12.64,12.64,0,0,0,1.88,2A11.76,11.76,0,0,0,37,52.37a12,12,0,0,0,2.63,1.05,11.07,11.07,0,0,0,2.89.38,6.52,6.52,0,0,0,2.15-.33,7.89,7.89,0,0,0,1.59-.74,7.21,7.21,0,0,0,1.3-1.08,1.44,1.44,0,0,1,1.08-.72c.36,0,.57.13.63.4A3.26,3.26,0,0,1,49.35,52Z"/><path class="cls-1" d="M57.19,54.7A3.82,3.82,0,0,1,57.35,56a2.45,2.45,0,0,1-.18,1,1.23,1.23,0,0,1-.45.52,1.34,1.34,0,0,1-.58.2l-.59,0a1.29,1.29,0,0,1-.36-1.08v-1.8a.58.58,0,0,0-.34-.6A4.38,4.38,0,0,0,54,54a11.35,11.35,0,0,1-1.13-.23,2.69,2.69,0,0,1-1.11-.6,3.33,3.33,0,0,1-.87-1.31,6.69,6.69,0,0,1-.35-2.4,6.19,6.19,0,0,1,.77-3,13.19,13.19,0,0,1,1.91-2.67c1.49.15,3,.34,4.44.56-.25.48-.48,1-.69,1.5a9.49,9.49,0,0,0-.68,3.57,15.88,15.88,0,0,0,.17,2.67,9.64,9.64,0,0,0,.37,1.5Z"/><path class="cls-1" d="M70.66,57.76c0,.12-.09.2-.28.25a2.8,2.8,0,0,1-.53.09l-.27,0a2.28,2.28,0,0,1-.94-.18,3.16,3.16,0,0,0-1.22-.18,4.65,4.65,0,0,0-.9.06,4,4,0,0,0-.62.12,3.19,3.19,0,0,0-.49.12,2,2,0,0,1-.5.06c-.54,0-.82-.06-.85-.18s.13-.18.49-.18a2.33,2.33,0,0,1,.18-.95,3.11,3.11,0,0,0,.18-1.21V45.89c1.57.39,3.13.83,4.67,1.32v6.95a15.3,15.3,0,0,0,.14,2.07A2.09,2.09,0,0,0,70.66,57.76Z"/><path class="cls-1" d="M82.7,52.63l0,.06a12.53,12.53,0,0,1-1.35,2.05,12,12,0,0,1-1.55,1.61,7.73,7.73,0,0,1-1.58,1,3.32,3.32,0,0,1-1.41.38,5.33,5.33,0,0,1-1.33-.17,8,8,0,0,1-1.14-.37c-.33-.14-.71-.32-1.13-.54h-.36l-.25,0a1,1,0,0,1-.44-.18q-.21-.15,0-.51a4.77,4.77,0,0,0,.87-.62c.4-.33.82-.69,1.25-1.09A14.74,14.74,0,0,0,75.39,53a3.57,3.57,0,0,0,.67-1l.2-.07a1,1,0,0,1,.34-.09.15.15,0,0,1,.18.16c0,.28,0,.58,0,.91a3.48,3.48,0,0,0,.15.93,1.77,1.77,0,0,0,.43.74,1.14,1.14,0,0,0,.84.3,2.71,2.71,0,0,0,2.42-1.22A4.66,4.66,0,0,0,81.33,52C81.79,52.16,82.25,52.4,82.7,52.63Z"/><path class="cls-3" d="M27.85,57.11a1.78,1.78,0,0,1,0,.26.83.83,0,0,1-.29.44.74.74,0,0,1-.75,0,12.81,12.81,0,0,1-1.42-.11l-2.17-.24c-.86-.09-1.85-.17-3-.25s-2.42-.13-3.86-.13c-.9,0-1.66,0-2.29.07s-1.18.08-1.64.13-.86.11-1.2.17l-1,.16c-.33,0-.69.1-1.08.14s-.86.06-1.4.06l-.24-.05a.29.29,0,0,1-.24-.28q0-.24.48-.75A.55.55,0,0,1,8,56.43a1.49,1.49,0,0,0,.36-.17.82.82,0,0,0,.28-.36A2.48,2.48,0,0,0,8.79,55V38.77a1.57,1.57,0,0,0-.18-.83,1.17,1.17,0,0,0-.45-.41,1.86,1.86,0,0,0-.58-.17l-.59,0c-.1,0-.24-.1-.42-.29a2,2,0,0,1-.4-.61.74.74,0,0,1,0-.62c.09-.19.36-.28.82-.28a11.47,11.47,0,0,0,2.79-.33c.87-.22,1.73-.47,2.56-.74S14,34,14.83,33.72a9.63,9.63,0,0,1,2.59-.34,9.29,9.29,0,0,1,1.49.13,7.78,7.78,0,0,1,1.53.41,4,4,0,0,1,1.18.67,1.22,1.22,0,0,1,.48.95.43.43,0,0,1-.22.4,1.08,1.08,0,0,1-.56.14,1.46,1.46,0,0,1-.6-.14,12.52,12.52,0,0,1-2-.73c-.36-.18.83-.08.32-.35a3.34,3.34,0,0,0-1.58-.4,4.34,4.34,0,0,0-1.14.21,6.47,6.47,0,0,0-1.42.61,4.71,4.71,0,0,0-1.28,1.07,2.07,2.07,0,0,0-.48,1.35V56a2.83,2.83,0,0,0,1.47-.51l1.73-1.11a20,20,0,0,1,1.92-1.11A4.45,4.45,0,0,1,21.67,53a11.21,11.21,0,0,1,1.29.5,11,11,0,0,1,1.29.72V51c0-.08.05-.36.14-.84a12,12,0,0,0,.18-1.59,5.78,5.78,0,0,0-.17-1.71,2.3,2.3,0,0,0-.25-.62,1.81,1.81,0,0,0-.61-.65l.05-.25a.78.78,0,0,1,.28-.43c.16-.14.4-.15.74,0a5.8,5.8,0,0,1,.89.79,1.35,1.35,0,0,1,.16.19,5.7,5.7,0,0,1,.71,1,4.89,4.89,0,0,1,.52,1.46,3.1,3.1,0,0,1-.12,1.59c-.1,1-.15,1.84-.15,2.51a10.17,10.17,0,0,0,.14,1.75,7.26,7.26,0,0,0,.4,1.44A15.61,15.61,0,0,0,27.85,57.11Z"/><path class="cls-3" d="M49.26,51.41a3.18,3.18,0,0,1,.09.67,11.05,11.05,0,0,1-1.72,2.47,12.44,12.44,0,0,1-2.25,1.94,11,11,0,0,1-2.52,1.26,6.61,6.61,0,0,1-4.34.16A12.56,12.56,0,0,1,36.19,57a14.48,14.48,0,0,1-2.49-1.58,11.54,11.54,0,0,1-2.25-2.32A11.84,11.84,0,0,1,29.2,46a8.7,8.7,0,0,1,0-.89,9.51,9.51,0,0,1,.59-2.67,13.14,13.14,0,0,1,1.65-3.07,14.11,14.11,0,0,1,2.31-2.5A18.87,18.87,0,0,1,36.4,35a13.07,13.07,0,0,1,2.54-1.19,7,7,0,0,1,2.13-.4,7,7,0,0,1,1.5.13,5.55,5.55,0,0,1,1,.33,3.8,3.8,0,0,1,.75.44,5.74,5.74,0,0,0,.66.43,4.05,4.05,0,0,0,.76.33,3.46,3.46,0,0,0,1,.14,2.26,2.26,0,0,0,1.28-.29,1,1,0,0,0,.46-.53.6.6,0,0,1,.1-.2.35.35,0,0,1,.23,0,1.23,1.23,0,0,1,.53.29.92.92,0,0,1,.28.75,3.43,3.43,0,0,1-.64,1.17,6.68,6.68,0,0,1-1.2,1.17,7.62,7.62,0,0,1-1.55.89,4.17,4.17,0,0,1-1.65.36,6,6,0,0,1-1.62-.23c-.54-.15-1.08-.31-1.62-.49s-1.08-.34-1.62-.49a6,6,0,0,0-1.62-.22,6.89,6.89,0,0,0-2.27.42,6.51,6.51,0,0,0-2.22,1.32A7.08,7.08,0,0,0,32,41.44a8,8,0,0,0-.66,3.25v.2a1.85,1.85,0,0,0,.11.58q.11.31.24.63c.09.21.17.4.25.57a1,1,0,0,1,.12.38,5.31,5.31,0,0,0,.66-1.28,9,9,0,0,1,.67-1.4h0a3.81,3.81,0,0,1,1.08-1.15,3.23,3.23,0,0,1,1.9-.48,4,4,0,0,1,1.41.28,6.71,6.71,0,0,0,1.51.39,3.11,3.11,0,0,0,1.57-.21,3.78,3.78,0,0,0,1.62-1.54,1.91,1.91,0,0,1,.17.22,1.3,1.3,0,0,1,.16.63,1.5,1.5,0,0,1-.33,1v.14h0a3.74,3.74,0,0,1-.2,1,3.35,3.35,0,0,1-.69,1.17,3.84,3.84,0,0,1-1.23.9,4.2,4.2,0,0,1-1.83.36,3.7,3.7,0,0,1-1.44-.27,4.07,4.07,0,0,0-1.29-.32,2.22,2.22,0,0,0-1.37.44,6.66,6.66,0,0,0-1.65,2,12.64,12.64,0,0,0,1.88,2A12.21,12.21,0,0,0,37,52.45a12,12,0,0,0,2.63,1,11.07,11.07,0,0,0,2.89.38,6.52,6.52,0,0,0,2.15-.33,7.89,7.89,0,0,0,1.59-.74,7.21,7.21,0,0,0,1.3-1.08A1.44,1.44,0,0,1,48.63,51C49,51,49.2,51.14,49.26,51.41Z"/><path class="cls-3" d="M61.74,35.32l-.43-.14a16.21,16.21,0,0,0-1.71-.9A16.88,16.88,0,0,0,58,33.66a5.54,5.54,0,0,0-1.7-.28,2.94,2.94,0,0,0-1.69.63,12.17,12.17,0,0,0-1.64,1.39,10.07,10.07,0,0,0-1.22,1.47,3.2,3.2,0,0,0-.48.83,3,3,0,0,0-.39.84,1.9,1.9,0,0,0-.06.81,1,1,0,0,0,.35.62,1.22,1.22,0,0,0,.81.24A1.26,1.26,0,0,0,52.7,40a.74.74,0,0,0,.29-.35,1,1,0,0,0,0-.19c0-.26-.25-.27-.12-.57.06-.13-.16-.23-.25-.32a1.5,1.5,0,0,1-.24-.31,1.2,1.2,0,0,1-.11-.59,2,2,0,0,1,.14-.83.86.86,0,0,1,.4-.42,1.84,1.84,0,0,1,.68-.16c.27,0,.58,0,.94,0l.81,0a4.5,4.5,0,0,1,.9.16,5.25,5.25,0,0,1,1,.42,8.58,8.58,0,0,1,1.23.83h.36l4-2.52Z"/><path class="cls-3" d="M84,47.77a9.58,9.58,0,0,1-.36,2.62,11.54,11.54,0,0,1-.91,2.32l0,.06a12.53,12.53,0,0,1-1.35,2,12,12,0,0,1-1.55,1.61,7.73,7.73,0,0,1-1.58,1,3.32,3.32,0,0,1-1.41.38,5.33,5.33,0,0,1-1.33-.17,8,8,0,0,1-1.14-.37c-.33-.14-.71-.32-1.13-.54h-.36l-.25,0a1,1,0,0,1-.44-.18q-.21-.15,0-.51a4.77,4.77,0,0,0,.87-.62c.4-.33.82-.69,1.25-1.09a14.74,14.74,0,0,0,1.17-1.22,3.57,3.57,0,0,0,.67-1l.2-.08a1,1,0,0,1,.34-.09c.12,0,.18.05.18.17,0,.28,0,.58,0,.91a3.48,3.48,0,0,0,.15.93,1.77,1.77,0,0,0,.43.74,1.14,1.14,0,0,0,.84.3,2.71,2.71,0,0,0,2.42-1.22A4.64,4.64,0,0,0,81.33,52a7.2,7.2,0,0,0,.12-1.37,4.93,4.93,0,0,0-.54-2,19.2,19.2,0,0,0-1.37-2.36c-.56-.82-1.18-1.65-1.86-2.48l-2-2.39c-.64-.75-1.22-1.45-1.74-2.09a14.34,14.34,0,0,1-1.14-1.58l-3.24,3.59v13a15.3,15.3,0,0,0,.14,2.07,2.09,2.09,0,0,0,.94,1.53c0,.12-.09.2-.28.25a2.8,2.8,0,0,1-.53.09l-.27,0a2.28,2.28,0,0,1-.94-.18,3.16,3.16,0,0,0-1.22-.18,4.65,4.65,0,0,0-.9.06,4,4,0,0,0-.62.12,3.19,3.19,0,0,0-.49.12,2,2,0,0,1-.5.06c-.54,0-.82-.06-.85-.18s.13-.18.49-.18a2.33,2.33,0,0,1,.18-1,3.11,3.11,0,0,0,.18-1.21V38.77L63.47,37.7c-.73.63-1.47,1.33-2.23,2.08a22.34,22.34,0,0,0-2.56,3,18.39,18.39,0,0,0-1,1.7c-.25.48-.48,1-.69,1.5a9.49,9.49,0,0,0-.68,3.57,15.88,15.88,0,0,0,.17,2.67,9.64,9.64,0,0,0,.37,1.5l.38,1A3.82,3.82,0,0,1,57.35,56a2.45,2.45,0,0,1-.18,1.05,1.23,1.23,0,0,1-.45.52,1.34,1.34,0,0,1-.58.2l-.59,0a1.29,1.29,0,0,1-.36-1.08V55a.58.58,0,0,0-.34-.6,4.38,4.38,0,0,0-.87-.25,11.35,11.35,0,0,1-1.13-.23,2.69,2.69,0,0,1-1.11-.6A3.3,3.3,0,0,1,50.87,52a6.59,6.59,0,0,1-.35-2.39,6.19,6.19,0,0,1,.77-3,13.19,13.19,0,0,1,1.91-2.67,27.2,27.2,0,0,1,2.89-2.74c1-.86,2.1-1.72,3.17-2.58s2.1-1.72,3.09-2.59c.4-.35.78-.7,1.13-1.06A2.53,2.53,0,0,1,67,34.85h0a11.46,11.46,0,0,1,1.58,1.71,5.69,5.69,0,0,1,1,2.2l1.64-1.88a4.24,4.24,0,0,1,6.19-.23l0,0a42.35,42.35,0,0,1,3.16,3.47A20.28,20.28,0,0,1,83,43.85,8.62,8.62,0,0,1,84,47.77Z"/></g></g></svg>